<svg width="204" height="57" viewBox="0 0 204 57" fill="none" xmlns="http://www.w3.org/2000/svg">
<path fill-rule="evenodd" clip-rule="evenodd" d="M101.606 0.920557C99.8459 1.19047 98.242 1.90484 98.0422 2.50689C97.7697 3.32551 98.1654 3.44834 99.6101 2.99256C102.504 2.08101 114.034 2.32264 118.661 3.39177C129.163 5.81935 132.115 8.88211 127.257 12.3093C121.727 16.2093 110.03 20.5594 107.467 19.6688C106.229 19.2389 106.462 18.5641 109.3 14.3353C112.403 9.71285 113.275 7.45417 111.943 7.48892C110.894 7.51639 96.2393 33.2823 96.2393 35.1006C96.2393 36.9867 98.7609 33.7373 101.095 28.8434C102.441 26.0214 104.254 23.3361 105.122 22.8746C107.437 21.6479 113.657 21.6059 116.561 22.797C120.263 24.3155 119.896 26.8829 115.275 31.776C110.602 36.7249 103.286 40.3073 84.708 46.7439C71.0703 51.4698 67.8904 53.2145 68.7714 55.4885C69.5097 57.3949 70.9594 57.0345 70.7359 55.0004C70.5613 53.4141 71.7083 52.8371 81.9628 49.3557C105.787 41.2681 113.214 37.4579 118.169 30.7836C121.282 26.5911 121.381 24.1708 118.546 21.5679C117.354 20.4737 116.528 19.491 116.71 19.3844C116.893 19.2777 119.522 17.9677 122.553 16.4735C129.295 13.1498 132.542 9.7379 131.246 7.3378C129.872 4.79547 122.622 1.98565 115.024 1.05066C107.711 0.150424 106.684 0.140726 101.606 0.920557ZM30.1598 3.50006C27.6921 3.87826 20.717 5.13973 14.6597 6.30422C8.60245 7.46871 2.82091 8.57826 1.81096 8.77059C-0.288898 9.1698 -0.695979 10.7052 1.29782 10.7052C2.02551 10.7052 7.25639 9.63527 12.9229 8.32855C30.3793 4.3009 44.6394 3.34086 47.8455 5.97693C49.5333 7.36447 47.8267 9.41708 41.9049 13.1223C35.7929 16.9463 21.9097 23.8128 21.3713 23.2795C21.1763 23.0872 22.0011 20.0034 23.2036 16.4267C24.406 12.85 25.2577 9.28132 25.0962 8.49664C24.9355 7.71115 23.3537 11.2507 21.5834 16.362C19.8123 21.4733 16.0409 30.3214 13.2019 36.0243C10.3638 41.7263 8.20516 46.8175 8.40585 47.3379C8.60572 47.8575 11.2106 43.2666 14.1939 37.1354L19.6181 25.9875L31.2114 20.4285C44.3906 14.1082 51.6047 8.66472 50.0922 6.18139C48.1799 3.04024 40.1827 1.96464 30.1598 3.50006ZM183.638 8.66149C181.789 10.6486 179.018 14.2229 177.481 16.6036C175.158 20.1998 173.837 21.3093 169.676 23.1591C164.529 25.4477 162.319 25.4622 162.319 23.2084C162.319 22.5021 161.952 22.1481 161.503 22.4229C161.054 22.6976 160.687 23.6448 160.687 24.5272C160.687 25.4105 159.786 27.0251 158.684 28.1161C156.447 30.3335 152.529 30.8249 152.529 28.8878C152.529 27.3734 152.856 27.3128 148.091 29.7072C143.741 31.894 141.953 31.4503 143.509 28.5702C144.237 27.2223 144.195 26.8675 143.307 26.8675C142.12 26.8675 140.292 30.1266 140.292 32.2431C140.292 33.271 140.929 33.4019 143.759 32.9583C145.667 32.6593 149.216 32.45 151.649 32.4936C155.391 32.5607 156.531 32.2067 159.064 30.1905C160.71 28.8797 163.608 27.3944 165.502 26.8885C167.397 26.3835 169.475 25.7693 170.12 25.5244C170.939 25.2125 171.292 25.6642 171.292 27.0235C171.292 30.6956 174.601 31.9578 179.011 29.9674C180.646 29.2296 181.54 29.262 183.153 30.1169C184.963 31.0762 185.725 30.9913 189.469 29.4155L193.727 27.6239L194.846 29.266C196.309 31.4124 198.341 31.3477 200.417 29.0898C203.411 25.8331 204.864 22.0188 203.109 22.0188C202.661 22.0188 199.034 23.4734 195.048 25.2513C187.817 28.4765 185.161 29.1456 185.161 27.7419C185.161 27.333 186.446 26.2129 188.016 25.2513C190.902 23.4847 191.957 20.4026 189.675 20.4026C189.017 20.4026 186.619 22.039 184.345 24.0391C182.072 26.0392 179.765 27.6805 179.219 27.6869C178.673 27.6926 177.401 27.9173 176.391 28.1847C174.812 28.6042 174.556 28.3601 174.556 26.4416C174.556 24.7551 176.132 22.5853 181.015 17.5459C187.355 11.005 190.493 6.55878 189.479 5.5551C188.338 4.42535 186.837 5.22377 183.638 8.66149ZM184.18 10.546C182.55 12.3328 180.811 14.5462 180.314 15.4642C178.755 18.35 181.483 16.6255 184.778 12.6423C188.586 8.03924 188.08 6.26947 184.18 10.546ZM69.5407 17.8182C67.848 19.9525 65.421 23.8807 64.1467 26.5467C62.4197 30.1622 60.9463 31.9489 58.3505 33.5757C54.4616 36.013 52.5893 36.3726 53.2974 34.5446C53.9305 32.9098 52.7411 33.0197 48.9231 34.9487C45.0538 36.9043 43.3831 37.0966 44.7838 35.4246C46.6136 33.2411 44.3482 33.4633 40.8141 35.8142C37.5836 37.9637 33.423 38.9909 33.423 37.6389C33.423 37.3407 34.0096 36.4542 34.7267 35.6695C36.169 34.0904 35.5245 32.1728 33.7746 32.8379C33.1612 33.0714 32.4424 32.9138 32.1773 32.4888C31.2334 30.976 29.0895 31.7574 26.3811 34.602C21.9342 39.2729 23.237 42.9118 28.4083 40.2628C30.128 39.382 31.0507 39.264 31.4333 39.8774C31.771 40.4188 33.1302 40.5586 34.9469 40.2394C36.5769 39.9525 39.5619 39.6357 41.581 39.5347C43.6001 39.4337 46.0695 38.8971 47.0688 38.3436C48.5022 37.5484 49.2217 37.5443 50.4789 38.3217C51.8184 39.1509 52.7402 38.9472 56.2637 37.0481C58.5683 35.8053 60.5409 34.9155 60.6461 35.0707C60.7522 35.2258 61.4978 36.396 62.3046 37.6704C63.6026 39.7222 64.1287 39.9412 66.8788 39.5759C68.5879 39.3489 71.9465 38.211 74.3425 37.0473C76.7393 35.8845 77.7819 35.1321 76.6602 35.3762C75.5385 35.6202 72.6767 36.2481 70.3002 36.771C62.8569 38.4098 60.9724 35.6962 65.6053 30.0103C72.9018 21.0556 75.8444 16.876 75.8444 15.465C75.8444 12.6156 72.7517 13.7704 69.5407 17.8182ZM71.9694 17.9629C69.3025 20.4244 66.0548 24.8844 66.0548 26.0844C66.0548 27.5003 70.5613 23.2278 72.7313 19.7537C74.7129 16.5834 74.3605 15.7567 71.9694 17.9629ZM126.455 29.0898C123.689 32.3974 122.547 35.4723 123.67 36.5843C124.081 36.9916 125.862 36.6392 127.851 35.7576C132.022 33.9078 133.659 31.0713 132.283 28.0797C130.994 25.2771 129.415 25.5511 126.455 29.0898ZM196.174 26.8675C195.897 27.312 196.426 27.6756 197.35 27.6756C198.273 27.6756 199.029 27.312 199.029 26.8675C199.029 26.4231 198.501 26.0594 197.854 26.0594C197.207 26.0594 196.452 26.4231 196.174 26.8675ZM126.07 31.8851C124.167 34.5761 125.833 35.4756 128.818 33.3696C130.204 32.3926 131.128 31.2564 130.872 30.8467C130.026 29.4915 127.354 30.0693 126.07 31.8851ZM28.2305 35.8158C27.0484 36.7362 26.0809 37.8369 26.0809 38.2603C26.0809 39.2349 30.3344 37.0918 31.7466 35.4061C33.3798 33.4569 30.8843 33.7478 28.2305 35.8158Z" fill="white"/>
</svg>
